<?xml version="1.0" standalone="no"?>
<!DOCTYPE svg PUBLIC "-//W3C//DTD SVG 20010904//EN"
 "http://www.w3.org/TR/2001/REC-SVG-20010904/DTD/svg10.dtd">
<svg version="1.0" xmlns="http://www.w3.org/2000/svg"
 width="1280.000000pt" height="1280.000000pt" viewBox="0 0 1280.000000 1280.000000"
 preserveAspectRatio="xMidYMid meet">

<g transform="translate(0.000000,1280.000000) scale(0.100000,-0.100000)"
fill="#000000" stroke="none">
<path d="M7896 12296 c-22 -8 -63 -39 -92 -68 -82 -83 -4215 -4789 -4235
-4823 -28 -46 -33 -105 -14 -171 14 -48 29 -71 88 -131 l70 -73 -1129 0 c-793
0 -1141 -3 -1169 -11 -54 -15 -139 -100 -154 -154 -15 -55 -15 -1984 0 -2039
12 -45 86 -128 129 -146 l30 -12 0 -1712 c0 -1220 3 -1722 11 -1751 15 -53 91
-129 144 -144 57 -16 9793 -16 9850 0 54 15 139 100 154 154 8 28 11 533 11
1747 l0 1708 28 6 c80 20 153 84 171 151 15 53 15 1993 0 2046 -13 47 -60 102
-113 130 l-41 22 -1296 5 -1297 5 1029 1170 c566 644 1037 1183 1045 1199 22
40 28 123 14 175 -8 31 -28 61 -63 97 -92 92 -2944 2592 -2978 2610 -45 23
-144 28 -193 10z m1378 -1720 l1241 -1091 -1143 -1300 c-629 -715 -1177 -1339
-1219 -1387 l-76 -88 -1611 0 -1611 0 -166 148 c-91 81 -243 214 -337 297 -95
82 -172 153 -172 157 0 17 3832 4368 3842 4362 5 -4 569 -498 1252 -1098z
m-5652 -4130 c7 -114 69 -202 158 -226 56 -15 5528 -14 5584 1 54 15 130 90
145 144 6 22 11 66 11 98 l0 57 890 0 890 0 0 -670 0 -670 -4770 0 -4770 0 0
670 0 670 929 0 928 0 5 -74z m7468 -3336 l0 -1560 -4585 0 -4585 0 0 1560 0
1560 4585 0 4585 0 0 -1560z"/>
</g>
</svg>
